<?xml version="1.0" encoding="UTF-8"?>
<svg xmlns="http://www.w3.org/2000/svg" width="7in" height="5in" viewBox="0 0 504 360">
  <defs>
    <clipPath id="leftClip">
      <rect x="22.00" y="18.00" width="262.08" height="324.00" />
    </clipPath>
    <linearGradient id="panelGradient" x1="0%" y1="0%" x2="0%" y2="100%">
      <stop offset="0%" stop-color="#f3e8ff" />
      <stop offset="100%" stop-color="#c7d2fe" />
    </linearGradient>
    <filter id="paperShadow" x="-20%" y="-20%" width="160%" height="160%">
      <feDropShadow dx="3" dy="3" stdDeviation="2.2" flood-color="#000000" flood-opacity="0.22"/>
    </filter>
  </defs>
  <rect x="0" y="0" width="504" height="360" fill="#f8fafc" />
  <g clip-path="url(#leftClip)">
    <path d="M 50.00 26.00 H 264.08 A 14.00 14.00 0 0 1 278.08 40.00 V 316.00 A 14.00 14.00 0 0 1 264.08 330.00 H 50.00 A 14.00 14.00 0 0 1 36.00 316.00 V 40.00 A 14.00 14.00 0 0 1 50.00 26.00 Z M 231.73 171.92 L 217.49 126.74 L 192.00 104.44 L 166.72 114.72 L 133.94 84.40 L 111.71 122.97 L 125.21 171.92 L 125.25 208.82 L 138.75 246.60 L 166.72 278.88 L 187.19 226.56 L 203.96 205.05 Z" fill="#000000" fill-opacity="0.17" fill-rule="evenodd" />
    <path d="M 46.00 22.00 H 260.08 A 14.00 14.00 0 0 1 274.08 36.00 V 312.00 A 14.00 14.00 0 0 1 260.08 326.00 H 46.00 A 14.00 14.00 0 0 1 32.00 312.00 V 36.00 A 14.00 14.00 0 0 1 46.00 22.00 Z M 227.73 167.92 L 213.49 122.74 L 188.00 100.44 L 162.72 110.72 L 129.94 80.40 L 107.71 118.97 L 121.21 167.92 L 121.25 204.82 L 134.75 242.60 L 162.72 274.88 L 183.19 222.56 L 199.96 201.05 Z" fill="#93c5fd" fill-rule="evenodd" filter="url(#paperShadow)" />
    <path d="M 64.00 36.00 H 254.08 A 14.00 14.00 0 0 1 268.08 50.00 V 302.00 A 14.00 14.00 0 0 1 254.08 316.00 H 64.00 A 14.00 14.00 0 0 1 50.00 302.00 V 50.00 A 14.00 14.00 0 0 1 64.00 36.00 Z M 218.32 160.40 L 205.50 118.79 L 182.54 98.25 L 159.76 107.72 L 130.23 79.79 L 110.21 115.32 L 122.37 160.40 L 122.40 194.39 L 134.56 229.19 L 159.76 258.92 L 178.20 210.73 L 193.31 190.92 Z" fill="#000000" fill-opacity="0.17" fill-rule="evenodd" />
    <path d="M 60.00 32.00 H 250.08 A 14.00 14.00 0 0 1 264.08 46.00 V 298.00 A 14.00 14.00 0 0 1 250.08 312.00 H 60.00 A 14.00 14.00 0 0 1 46.00 298.00 V 46.00 A 14.00 14.00 0 0 1 60.00 32.00 Z M 214.32 156.40 L 201.50 114.79 L 178.54 94.25 L 155.76 103.72 L 126.23 75.79 L 106.21 111.32 L 118.37 156.40 L 118.40 190.39 L 130.56 225.19 L 155.76 254.92 L 174.20 206.73 L 189.31 186.92 Z" fill="#a5b4fc" fill-rule="evenodd" filter="url(#paperShadow)" />
    <path d="M 78.00 46.00 H 244.08 A 14.00 14.00 0 0 1 258.08 60.00 V 288.00 A 14.00 14.00 0 0 1 244.08 302.00 H 78.00 A 14.00 14.00 0 0 1 64.00 288.00 V 60.00 A 14.00 14.00 0 0 1 78.00 46.00 Z M 225.92 174.88 L 214.51 136.84 L 194.07 118.05 L 173.80 126.71 L 147.52 101.18 L 129.70 133.66 L 140.52 174.88 L 140.55 205.96 L 151.37 237.77 L 173.80 264.95 L 190.21 220.90 L 203.66 202.78 Z" fill="#000000" fill-opacity="0.17" fill-rule="evenodd" />
    <path d="M 74.00 42.00 H 240.08 A 14.00 14.00 0 0 1 254.08 56.00 V 284.00 A 14.00 14.00 0 0 1 240.08 298.00 H 74.00 A 14.00 14.00 0 0 1 60.00 284.00 V 56.00 A 14.00 14.00 0 0 1 74.00 42.00 Z M 221.92 170.88 L 210.51 132.84 L 190.07 114.05 L 169.80 122.71 L 143.52 97.18 L 125.70 129.66 L 136.52 170.88 L 136.55 201.96 L 147.37 233.77 L 169.80 260.95 L 186.21 216.90 L 199.66 198.78 Z" fill="#c4b5fd" fill-rule="evenodd" filter="url(#paperShadow)" />
    <path d="M 92.00 56.00 H 234.08 A 14.00 14.00 0 0 1 248.08 70.00 V 274.00 A 14.00 14.00 0 0 1 234.08 288.00 H 92.00 A 14.00 14.00 0 0 1 78.00 274.00 V 70.00 A 14.00 14.00 0 0 1 92.00 56.00 Z M 208.51 171.36 L 198.51 136.88 L 180.60 119.86 L 162.84 127.71 L 139.81 104.57 L 124.19 134.01 L 133.68 171.36 L 133.70 199.52 L 143.19 228.36 L 162.84 252.99 L 177.23 213.06 L 189.00 196.65 Z" fill="#000000" fill-opacity="0.17" fill-rule="evenodd" />
    <path d="M 88.00 52.00 H 230.08 A 14.00 14.00 0 0 1 244.08 66.00 V 270.00 A 14.00 14.00 0 0 1 230.08 284.00 H 88.00 A 14.00 14.00 0 0 1 74.00 270.00 V 66.00 A 14.00 14.00 0 0 1 88.00 52.00 Z M 204.51 167.36 L 194.51 132.88 L 176.60 115.86 L 158.84 123.71 L 135.81 100.57 L 120.19 130.01 L 129.68 167.36 L 129.70 195.52 L 139.19 224.36 L 158.84 248.99 L 173.23 209.06 L 185.00 192.65 Z" fill="#ddd6fe" fill-rule="evenodd" filter="url(#paperShadow)" />
    <path d="M 106.00 66.00 H 224.08 A 14.00 14.00 0 0 1 238.08 80.00 V 260.00 A 14.00 14.00 0 0 1 224.08 274.00 H 106.00 A 14.00 14.00 0 0 1 92.00 260.00 V 80.00 A 14.00 14.00 0 0 1 106.00 66.00 Z M 214.11 159.84 L 205.52 128.93 L 190.14 113.67 L 174.88 120.70 L 155.10 99.96 L 141.69 126.35 L 149.83 159.84 L 149.86 185.09 L 158.00 210.94 L 174.88 233.02 L 187.24 197.23 L 197.35 182.51 Z" fill="#000000" fill-opacity="0.17" fill-rule="evenodd" />
    <path d="M 102.00 62.00 H 220.08 A 14.00 14.00 0 0 1 234.08 76.00 V 256.00 A 14.00 14.00 0 0 1 220.08 270.00 H 102.00 A 14.00 14.00 0 0 1 88.00 256.00 V 76.00 A 14.00 14.00 0 0 1 102.00 62.00 Z M 210.11 155.84 L 201.52 124.93 L 186.14 109.67 L 170.88 116.70 L 151.10 95.96 L 137.69 122.35 L 145.83 155.84 L 145.86 181.09 L 154.00 206.94 L 170.88 229.02 L 183.24 193.23 L 193.35 178.51 Z" fill="#fae8ff" fill-rule="evenodd" filter="url(#paperShadow)" />
    <path d="M 120.00 76.00 H 214.08 A 14.00 14.00 0 0 1 228.08 90.00 V 246.00 A 14.00 14.00 0 0 1 214.08 260.00 H 120.00 A 14.00 14.00 0 0 1 106.00 246.00 V 90.00 A 14.00 14.00 0 0 1 120.00 76.00 Z M 201.70 167.32 L 194.53 139.98 L 181.67 126.48 L 168.92 132.70 L 152.39 114.35 L 141.18 137.69 L 147.99 167.32 L 148.01 189.66 L 154.81 212.52 L 168.92 232.06 L 179.25 200.39 L 187.70 187.37 Z" fill="#000000" fill-opacity="0.17" fill-rule="evenodd" />
    <path d="M 116.00 72.00 H 210.08 A 14.00 14.00 0 0 1 224.08 86.00 V 242.00 A 14.00 14.00 0 0 1 210.08 256.00 H 116.00 A 14.00 14.00 0 0 1 102.00 242.00 V 86.00 A 14.00 14.00 0 0 1 116.00 72.00 Z M 197.70 163.32 L 190.53 135.98 L 177.67 122.48 L 164.92 128.70 L 148.39 110.35 L 137.18 133.69 L 143.99 163.32 L 144.01 185.66 L 150.81 208.52 L 164.92 228.06 L 175.25 196.39 L 183.70 183.37 Z" fill="#ffffff" fill-rule="evenodd" filter="url(#paperShadow)" />
  </g>
  <rect x="292.32" y="24.00" width="181.44" height="312.00" rx="14" fill="#e5e7eb" />
  <rect x="300.32" y="32.00" width="165.44" height="296.00" rx="8" fill="url(#panelGradient)" />
  <text x="314.32" y="98.00" font-family="Helvetica, Arial, sans-serif" font-size="22" font-weight="700" fill="#1f2937">Papercut Art</text>
  <text x="314.32" y="122.00" font-family="Helvetica, Arial, sans-serif" font-size="12" fill="#374151">Exercise 6</text>
  <text x="314.32" y="140.00" font-family="Helvetica, Arial, sans-serif" font-size="12" fill="#374151">Vector postcard design</text>
  <text x="314.32" y="158.00" font-family="Helvetica, Arial, sans-serif" font-size="12" fill="#374151">Made for Adobe Illustrator</text>
</svg>
