<?xml version="1.0" encoding="UTF-8"?>
<svg xmlns="http://www.w3.org/2000/svg" width="1200" height="1200" viewBox="0 0 1200 1200">
  <rect x="0" y="0" width="1200" height="1200" fill="#cfefff" stroke="#8fcde8" stroke-width="4"/>
  <circle cx="980" cy="170" r="80" fill="#fff4b3" stroke="#f3cf5b" stroke-width="8"/>

  <path d="M170 930 C 350 760, 530 760, 720 900 C 855 995, 1015 1000, 1120 930 L 1120 1200 L 80 1200 Z"
        fill="#6ac07d" stroke="#3b8f58" stroke-width="8"/>

  <rect x="245" y="865" width="26" height="200" fill="#7a4b26" stroke="#5e3719" stroke-width="4"/>
  <path d="M258 855 C 225 770, 300 690, 365 725 C 410 745, 420 805, 390 845 C 360 885, 290 895, 258 855 Z"
        fill="#48a558" stroke="#2d703c" stroke-width="7"/>

  <ellipse cx="620" cy="620" rx="230" ry="175" fill="#4f8de2" stroke="#2f5ea3" stroke-width="12"/>
  <path d="M420 650 C 520 760, 740 755, 840 655 C 780 835, 460 850, 420 650 Z"
        fill="#3d74c4" stroke="#2f5ea3" stroke-width="10"/>

  <circle cx="470" cy="520" r="92" fill="#5fa0f1" stroke="#2f5ea3" stroke-width="10"/>
  <circle cx="495" cy="505" r="13" fill="#ffffff" stroke="#2f5ea3" stroke-width="4"/>
  <circle cx="500" cy="507" r="6" fill="#1f2a44" stroke="#1f2a44" stroke-width="2"/>

  <polygon points="395,540 325,568 392,588" fill="#f29f4b" stroke="#b46a1f" stroke-width="6"/>

  <path d="M620 600 C 700 520, 840 520, 900 595 C 835 635, 705 640, 620 600 Z"
        fill="#3c78d1" stroke="#2f5ea3" stroke-width="9"/>
  <path d="M590 640 C 655 705, 785 705, 850 640" fill="none" stroke="#2f5ea3" stroke-width="9"/>

  <rect x="620" y="765" width="18" height="115" rx="7" fill="#e59f4f" stroke="#a66e2b" stroke-width="4"/>
  <rect x="670" y="765" width="18" height="115" rx="7" fill="#e59f4f" stroke="#a66e2b" stroke-width="4"/>
</svg>
