<?xml version="1.0" encoding="UTF-8"?>
<svg xmlns="http://www.w3.org/2000/svg" width="1200" height="1200" viewBox="0 0 1200 1200">
  <rect x="0" y="0" width="1200" height="1200" fill="#1e1034" stroke="#130a24" stroke-width="4"/>
  <circle cx="950" cy="210" r="115" fill="#ffe6a6" stroke="#f2cb70" stroke-width="10"/>
  <path d="M180 980 C 290 770, 470 730, 610 820 C 760 915, 930 880, 1030 760 L 1080 1200 L 120 1200 Z" fill="#281443" stroke="#110a24" stroke-width="6"/>

  <path d="M600 360 C 560 290, 600 250, 650 260 C 720 275, 740 350, 690 390 C 660 415, 620 405, 600 360 Z"
        fill="#3a8a3a" stroke="#225522" stroke-width="8"/>

  <ellipse cx="600" cy="690" rx="260" ry="220" fill="#f98e1e" stroke="#a94d00" stroke-width="14"/>
  <path d="M340 700 C 345 575, 440 490, 560 470 C 700 445, 840 505, 860 680"
        fill="none" stroke="#d26f12" stroke-width="16"/>

  <polygon points="500,660 560,620 565,690" fill="#281443" stroke="#130a24" stroke-width="7"/>
  <polygon points="700,660 640,620 635,690" fill="#281443" stroke="#130a24" stroke-width="7"/>

  <path d="M490 780 Q 600 900 710 780 Q 600 860 490 780 Z" fill="#281443" stroke="#130a24" stroke-width="7"/>

  <rect x="560" y="460" width="80" height="110" rx="18" fill="#4a9f4a" stroke="#245924" stroke-width="8"/>
  <path d="M545 470 C 560 430, 640 430, 655 470" fill="none" stroke="#245924" stroke-width="8"/>

  <circle cx="250" cy="330" r="22" fill="#ffe6a6" stroke="#f2cb70" stroke-width="5"/>
  <circle cx="310" cy="280" r="15" fill="#ffe6a6" stroke="#f2cb70" stroke-width="4"/>
  <circle cx="205" cy="270" r="12" fill="#ffe6a6" stroke="#f2cb70" stroke-width="4"/>

  <path d="M870 470 C 900 430, 980 430, 1010 470 C 980 495, 900 495, 870 470 Z"
        fill="#0f0f0f" stroke="#000000" stroke-width="5"/>
  <path d="M910 470 C 930 430, 960 430, 970 470" fill="none" stroke="#000000" stroke-width="5"/>
</svg>
