<svg xmlns="http://www.w3.org/2000/svg" viewBox="0 0 512 512" role="img" aria-label="Darlink">
  <defs>
    <linearGradient id="dlPin" x1="0%" y1="0%" x2="0%" y2="100%">
      <stop offset="0%" stop-color="#FB7185"/>
      <stop offset="100%" stop-color="#BE123C"/>
    </linearGradient>
  </defs>
  <!-- App tile -->
  <rect width="512" height="512" rx="112" fill="#0F172A"/>
  <!-- House -->
  <path fill="#F8F6F2" d="M256 132 152 218v258h104V312h104v164h104V218L256 132zm0 72 72 54v166H184V258l72-54z"/>
  <!-- Location pin overlay -->
  <path fill="url(#dlPin)" d="M256 268c-44 0-80 34-80 76 0 54 80 146 80 146s80-92 80-146c0-42-36-76-80-76zm0 116c-22 0-40-17-40-39s18-39 40-39 40 17 40 39-18 39-40 39z"/>
  <!-- Stay cue: dawn arc + accent -->
  <path fill="none" stroke="#D6C3A1" stroke-width="16" stroke-linecap="round" d="M120 420c112-92 272-92 384 0"/>
  <circle cx="384" cy="152" r="36" fill="#D6C3A1"/>
</svg>
